<svg width="46" height="42" viewBox="0 0 46 42" fill="none" xmlns="http://www.w3.org/2000/svg">
<path d="M38.6391 0.431641C42.057 3.41256 44.1599 15.842 44.1599 20.1733V29.9037L22.1646 2.78916V15.2168L43.5813 40.3654H46.0002V0.43252H38.6391V0.431641Z" fill="#E2E4D6"/>
<path d="M16.4522 7.54933e-06C14.7704 0.011422 13.2396 1.0396 12.4992 2.6543C14.3706 3.43048 15.354 5.49034 14.9263 7.94181C14.8582 8.28248 14.5734 8.52219 14.2483 8.51516H14.126C13.7772 8.43175 13.549 8.07351 13.604 7.69596C13.8954 6.04965 13.3397 4.20754 11.4617 3.81594H11.3262C10.1976 3.26804 8.90483 3.25575 7.76718 3.77994C5.53538 4.80899 4.50608 7.5783 5.46807 9.96567C5.47053 9.98762 5.47053 10.0096 5.46807 10.0306C5.76521 10.9148 6.67139 11.3802 7.50205 11.0746C7.59727 11.0044 7.70726 10.9622 7.82217 10.9508C8.19482 10.9131 8.52561 11.2055 8.5609 11.605C8.5962 12.0036 8.32205 12.3574 7.9494 12.3952C7.6301 12.5216 7.29274 12.5857 6.95293 12.584C5.94004 12.5769 5.00349 12.0089 4.47817 11.0825C4.15887 11.1756 3.85025 11.3073 3.55886 11.4741C1.42392 12.699 0.621158 15.5429 1.7662 17.8276C3.41932 17.0637 5.34577 17.6739 6.34306 19.2781C6.53759 19.6012 6.46372 20.0306 6.17315 20.2571C6.06316 20.3361 5.93348 20.3791 5.8005 20.38C5.58463 20.3765 5.38353 20.2632 5.25794 20.0753C5.25302 20.0666 5.24727 20.0586 5.24235 20.0499C4.50033 18.8698 3.00481 18.5563 1.90163 19.3501C0.951125 19.9568 0.287085 20.9665 0.0736734 22.1282C-0.340838 24.3882 1.03567 26.5798 3.14927 27.0232C3.38074 27.0741 3.57035 27.2497 3.65079 27.4877C3.73123 27.7388 3.67623 28.0171 3.50879 28.2129C2.79386 29.062 2.39084 30.1604 2.37606 31.3036C2.34241 33.907 4.28856 36.0467 6.72228 36.0819C7.53571 35.8931 9.58364 35.1169 9.77981 34.0729C9.86928 33.7147 10.1968 33.4864 10.5391 33.5435C10.8912 33.6269 11.1202 33.9904 11.0611 34.3706C10.7426 36.1258 8.56583 37.0178 7.4134 37.3734C7.42818 38.0609 7.60219 38.7335 7.91985 39.3315C8.98034 41.3272 11.3517 42.0252 13.2174 40.8908C13.2601 40.8443 13.3085 40.803 13.3594 40.7679C13.3668 40.7644 13.3742 40.76 13.3816 40.7565C14.5816 40.1366 15.0847 38.5921 14.5052 37.3085C14.4265 37.2128 14.3731 37.0969 14.3493 36.9722C14.2746 36.5797 14.5126 36.1969 14.8795 36.117C15.2464 36.0371 15.6043 36.2917 15.6782 36.6842C16.421 38.2717 16.0763 40.1954 14.8377 41.3764C15.0248 41.5002 15.221 41.6064 15.4254 41.6951C17.4183 42.5573 19.6862 41.5283 20.4923 39.3964V22.3889C19.6944 21.5645 18.464 21.4547 17.5497 22.1282C17.3116 22.2239 17.0432 22.1686 16.8552 21.9851C16.5786 21.7155 16.5589 21.2563 16.8109 20.9604C17.9026 20.164 19.3119 20.0639 20.4923 20.6996V14.0125C19.6944 13.1845 18.4632 13.0695 17.5431 13.7368C17.241 13.9396 16.8438 13.8571 16.6344 13.548C16.4407 13.2232 16.5187 12.7938 16.8109 12.569C17.9067 11.785 19.3111 11.6884 20.4923 12.3153V9.01564L20.567 3.06083C19.93 1.21872 18.2876 -0.00350458 16.4514 7.54933e-06H16.4522ZM11.3295 29.4791H11.2015C11.1859 29.4755 11.1711 29.4729 11.1555 29.4694C9.1642 29.0234 7.88784 26.9354 8.30399 24.8053C8.40331 24.5884 8.59702 24.4391 8.8211 24.4084C9.18965 24.3575 9.52618 24.635 9.57461 25.0283C9.57379 25.0336 9.57215 25.0388 9.57133 25.0441C9.30374 26.4323 10.1385 27.7906 11.4362 28.0768L11.4494 28.0988C11.671 28.1883 11.8319 28.3964 11.8737 28.6458C11.9386 29.0365 11.694 29.4097 11.3287 29.4791H11.3295ZM10.9199 17.1392C10.6876 17.2279 10.4283 17.1734 10.2452 16.997C9.9686 16.7318 9.94644 16.277 10.1943 15.9819C10.2066 15.9732 10.2181 15.9644 10.2304 15.9565C11.9328 14.765 14.2163 15.276 15.3302 17.097C15.5222 17.4193 15.4451 17.8451 15.1553 18.0681C14.8557 18.2692 14.4626 18.1867 14.2549 17.8811C14.2516 17.8759 14.2492 17.8715 14.2459 17.8662C13.5153 16.6835 12.0264 16.3586 10.9207 17.1401L10.9199 17.1392ZM17.7228 27.3147C18.0766 27.2708 18.4008 27.5289 18.4624 27.9047C18.5034 28.2832 18.2613 28.63 17.9108 28.6959C17.7327 28.7222 17.5529 28.7345 17.3732 28.7318C15.5321 28.7196 13.9816 27.255 13.7435 25.3023C13.6959 25.1864 13.6779 25.0599 13.691 24.9344C13.732 24.5392 14.0645 24.2556 14.4338 24.2995C14.8024 24.3434 15.0683 24.699 15.0273 25.0942C15.198 26.5043 16.4046 27.4982 17.7228 27.3165V27.3147Z" fill="#E2E4D6"/>
</svg>
