<svg width="373" height="378" viewBox="0 0 373 378" fill="none" xmlns="http://www.w3.org/2000/svg">
<path d="M45.8988 92.6083C34.4715 19.4797 119.94 -28.6161 176.518 19.1045L196.619 36.0587C215.046 51.6008 239.499 58.0051 263.179 53.4909L276.99 50.8581C352.317 36.4982 402.737 126.097 351.369 183.033L341.951 193.472C325.803 211.37 318.586 235.596 322.308 259.413L326.368 285.394C337.795 358.522 252.327 406.618 195.748 358.898L175.647 341.944C157.22 326.401 132.767 319.997 109.088 324.511L95.2765 327.144C19.9497 341.504 -30.4705 251.905 20.8976 194.969L30.3159 184.53C46.464 166.632 53.6804 142.407 49.9587 118.589L45.8988 92.6083Z" fill="#6E7D66"/>
</svg>
